<svg xmlns="http://www.w3.org/2000/svg" width="800" height="800" viewBox="0 0 64 64"><defs><style>.cls-1{fill:#f57c00}.cls-2{fill:#999}.cls-3{fill:#666}</style></defs><title/><g id="outline_color" data-name="outline color"><path d="M22 60a1 1 0 0 1-.5-.13l-9-5a1 1 0 0 1 0-1.74l9-5a1 1 0 0 1 1.43.49A14.3 14.3 0 0 1 24 54a14.4 14.4 0 0 1-1.06 5.38A1 1 0 0 1 22 60m-7-6 6.4 3.56A12.2 12.2 0 0 0 22 54a12 12 0 0 0-.54-3.56Z" class="cls-1"/><path d="M59 60H22a1 1 0 0 1-.83-.44 1 1 0 0 1-.1-.94A12.3 12.3 0 0 0 22 54a12.1 12.1 0 0 0-.92-4.62 1 1 0 0 1 .1-.94A1 1 0 0 1 22 48h37a1 1 0 0 1 1 1v10a1 1 0 0 1-1 1m-35.58-2H58v-8H23.42a13.9 13.9 0 0 1 .58 4 14.3 14.3 0 0 1-.58 4" class="cls-1"/><path d="M47 56H24a1 1 0 0 1 0-2h23a1 1 0 0 1 0 2M52 59a1 1 0 0 1-1-1v-8a1 1 0 0 1 2 0v8a1 1 0 0 1-1 1" class="cls-1"/><path d="M16.27 48.61a1 1 0 0 1-.91-.59L4.56 23.83a5 5 0 0 1 2.52-6.6l20.17-9a1 1 0 0 1 .82 1.77L7.9 19a3 3 0 0 0-1.52 4l10.8 24.2a1 1 0 0 1-.5 1.32 1 1 0 0 1-.41.09" class="cls-2"/><path d="M16.74 22.68a1 1 0 0 1-.92-.6 1 1 0 0 1 .51-1.32l8.22-3.67a1 1 0 1 1 .81 1.83l-8.22 3.67a1 1 0 0 1-.4.09M16.44 29.38a1 1 0 0 1-.44-1.91l6.78-3a1 1 0 0 1 .82 1.82l-6.78 3a1 1 0 0 1-.38.09M18.89 34.85a1 1 0 0 1-.41-1.91l2.29-1a1 1 0 0 1 .82 1.82l-2.29 1a1 1 0 0 1-.41.09" class="cls-3"/><path d="M51 46a.8.8 0 0 1-.26 0 1 1 0 0 1-.7-1.22l7.86-28.67a3 3 0 0 0-.3-2.28 2.9 2.9 0 0 0-1.81-1.4L32.65 6.08A3 3 0 0 0 29 8.2l-8.23 29.89a3 3 0 0 0 .29 2.28 3 3 0 0 0 1.81 1.41L31.12 44a1 1 0 0 1-.52 2l-8.25-2.3a5 5 0 0 1-3-2.34 4.93 4.93 0 0 1-.47-3.79L27 7.67a5 5 0 0 1 6.14-3.51l23.17 6.34a5 5 0 0 1 3.51 6.13L52 45.26a1 1 0 0 1-1 .74" class="cls-2"/><path d="M47.46 17.36a1.2 1.2 0 0 1-.27 0L38.51 15a1 1 0 0 1 .49-2l8.68 2.38a1 1 0 0 1-.26 2ZM48.77 23.94a1.2 1.2 0 0 1-.27 0L34 20a1 1 0 1 1 .56-2L49 22a1 1 0 0 1-.26 2ZM47.18 29.73a.8.8 0 0 1-.26 0l-14.47-4a1 1 0 1 1 .55-1.92l14.47 4a1 1 0 0 1 .7 1.22 1 1 0 0 1-.99.7M45.6 35.52a.8.8 0 0 1-.27 0l-14.47-4a1 1 0 1 1 .53-1.93l14.47 4a1 1 0 0 1 .7 1.23 1 1 0 0 1-.96.7" class="cls-3"/></g></svg>